<?xml version="1.0" standalone="no"?>
<!DOCTYPE svg PUBLIC "-//W3C//DTD SVG 20010904//EN"
 "http://www.w3.org/TR/2001/REC-SVG-20010904/DTD/svg10.dtd">
<svg version="1.0" xmlns="http://www.w3.org/2000/svg"
 width="101.000000pt" height="101.000000pt" viewBox="0 0 101.000000 101.000000"
 preserveAspectRatio="xMidYMid meet">
<metadata>
Created by potrace 1.11, written by Peter Selinger 2001-2013
</metadata>
<g transform="translate(0.000000,101.000000) scale(0.100000,-0.100000)"
fill="#000000" stroke="none">
<path d="M243 989 c-93 -46 -119 -117 -60 -163 64 -51 67 -55 67 -100 0 -56
-38 -206 -84 -327 -49 -132 -48 -156 11 -213 97 -94 213 -132 378 -123 127 6
192 30 279 105 64 55 66 58 66 104 0 62 -8 67 -189 104 -21 4 -16 10 45 50 82
54 97 70 84 95 -6 10 -86 72 -178 138 -249 179 -237 167 -237 239 0 50 -4 65
-24 86 -31 33 -97 35 -158 5z m127 -32 c0 -7 -5 -29 -11 -50 -8 -30 -18 -41
-47 -54 -20 -8 -44 -19 -52 -23 -15 -7 -57 13 -72 35 -15 21 -7 35 19 35 33 0
104 33 128 60 18 20 35 18 35 -3z m-84 4 c-6 -9 -66 -33 -66 -26 0 6 52 34 63
35 5 0 6 -4 3 -9z m213 -225 c48 -38 109 -95 135 -126 50 -63 91 -143 82 -165
-8 -21 -180 -101 -271 -126 -76 -21 -254 -33 -269 -18 -3 3 17 75 46 160 48
143 52 161 53 251 l0 96 35 11 c20 6 44 17 55 25 18 13 21 12 33 -13 7 -14 53
-57 101 -95z m238 -401 c47 -24 91 -61 82 -69 -2 -2 -19 -6 -38 -10 -29 -5
-32 -4 -21 9 15 18 6 45 -15 45 -21 0 -30 -27 -15 -45 10 -12 7 -15 -17 -22
-41 -10 -360 -7 -413 5 l-45 10 50 1 c28 1 67 5 88 10 33 8 37 7 37 -10 0 -12
7 -19 19 -19 25 0 36 17 22 34 -9 10 -7 15 9 19 11 3 20 1 20 -3 0 -5 9 -12
20 -15 25 -8 50 10 50 35 0 18 57 47 96 49 11 1 43 -10 71 -24z m-461 -111
c144 -27 454 -15 584 22 22 7 24 6 12 -9 -53 -64 -594 -73 -689 -11 -29 19
-31 39 -3 24 12 -6 55 -18 96 -26z"/>
<path d="M446 694 c-13 -9 -23 -11 -30 -4 -18 18 -26 10 -26 -27 l0 -36 -23
21 c-30 28 -33 28 -41 -3 -4 -17 -13 -25 -28 -25 -21 0 -20 -1 7 -30 l29 -30
-32 0 c-36 0 -48 -13 -27 -30 11 -9 12 -17 4 -32 -15 -28 -4 -34 42 -21 l41
11 -31 -32 c-36 -38 -38 -46 -10 -46 12 0 23 -8 26 -20 7 -27 17 -25 42 8 l20
27 1 -32 c0 -37 15 -50 36 -32 11 9 18 9 26 1 22 -22 31 -12 25 28 l-5 40 31
-26 32 -27 3 26 c2 19 9 27 23 27 24 0 24 12 -1 35 -24 21 -18 35 16 35 26 0
31 9 13 27 -8 8 -8 17 0 31 10 19 8 21 -25 24 l-36 3 22 28 21 27 -21 0 c-13
0 -24 10 -31 27 l-10 27 -24 -29 c-24 -31 -30 -28 -37 22 -3 20 -5 20 -22 7z
m0 -60 c-5 -13 -9 -14 -21 -4 -20 16 -19 28 3 32 20 4 26 -6 18 -28z m88 -25
c-8 -14 -34 -11 -34 4 0 8 3 17 7 20 9 9 34 -13 27 -24z m-164 -5 c0 -8 -9
-14 -20 -14 -23 0 -25 6 -7 24 14 16 27 11 27 -10z m97 5 c-22 -13 -22 -31 1
-28 9 1 30 1 46 0 28 -1 28 -2 13 -25 -14 -21 -14 -26 -2 -36 17 -14 20 -30 4
-30 -5 0 -8 4 -5 9 3 5 -1 14 -9 21 -12 10 -16 9 -21 -5 -4 -9 -2 -20 4 -24 7
-4 8 -12 2 -21 -7 -10 -10 -11 -10 -2 0 6 -7 12 -15 12 -8 0 -15 -7 -15 -15 0
-8 -4 -15 -9 -15 -5 0 -11 7 -15 15 -7 20 -26 19 -26 0 0 -13 -2 -14 -14 -3
-8 7 -10 15 -5 16 5 2 9 11 9 19 0 10 -6 14 -20 10 -12 -3 -17 -1 -14 5 3 5
-2 18 -11 28 -16 18 -16 19 9 26 19 4 26 13 26 30 0 25 14 32 26 12 4 -7 3 -8
-4 -4 -8 5 -12 0 -12 -13 0 -28 10 -26 44 9 16 17 32 27 35 24 3 -3 -2 -10
-12 -15z m109 -69 c0 -11 -5 -20 -11 -20 -17 0 -24 10 -18 26 8 21 29 17 29
-6z m-236 -26 c0 -8 -7 -14 -15 -14 -15 0 -21 21 -9 33 10 9 24 -2 24 -19z
m214 -52 c6 -10 -19 -43 -27 -35 -13 12 -7 43 7 43 8 0 17 -3 20 -8z m-170
-21 c10 -16 -18 -30 -31 -16 -6 7 -9 16 -6 19 9 9 31 7 37 -3z m84 -32 c1 -9
-6 -15 -18 -16 -11 -1 -20 4 -20 11 0 29 32 33 38 5z"/>
<path d="M490 554 c0 -17 22 -14 28 4 2 7 -3 12 -12 12 -9 0 -16 -7 -16 -16z"/>
<path d="M362 548 c6 -18 28 -21 28 -4 0 9 -7 16 -16 16 -9 0 -14 -5 -12 -12z"/>
<path d="M423 553 c-20 -7 -15 -41 6 -53 15 -7 23 -6 35 6 19 19 20 26 4 42
-13 13 -24 14 -45 5z"/>
<path d="M627 333 c-4 -3 -7 -14 -7 -23 0 -22 60 -36 72 -18 13 21 9 28 -18
38 -30 12 -38 12 -47 3z"/>
</g>
</svg>
